<svg xmlns="http://www.w3.org/2000/svg" viewBox="0 0 45 45" width="45" height="45">
	<style>
		tspan { white-space:pre }
		.shp0 { fill: #e64895;stroke: #ffffff;paint-order:stroke fill markers;stroke-width: 2 } 
		.shp1 { fill: #ffffff } 
	</style>
	<g id="say hello">
		<g id="social buttons">
			<path id="Rounded Rectangle 4 copy" class="shp0" d="M7.17 0L37.36 0C41.3 0 44.5 3.23 44.5 7.22L44.5 37.78C44.5 41.77 41.3 45 37.36 45L7.17 45C3.23 45 0.04 41.77 0.04 37.78L0.04 7.22C0.04 3.23 3.23 0 7.17 0Z" />
			<path id="Dribbble" class="shp1" d="M22.25 34.43C15.74 34.43 10.45 29.07 10.45 22.48C10.45 15.89 15.74 10.53 22.25 10.53C28.77 10.53 34.06 15.89 34.06 22.48C34.06 29.07 28.77 34.43 22.25 34.43ZM22.25 12.03C16.56 12.03 11.92 16.72 11.92 22.48C11.92 28.25 16.56 32.94 22.25 32.94C27.95 32.94 32.59 28.25 32.59 22.48C32.59 16.72 27.95 12.03 22.25 12.03ZM27 33.34C26.61 33.34 26.29 33.04 26.26 32.65C26.26 32.6 25.81 27.2 22.68 21.12C19.55 15.02 17.41 12.7 17.39 12.68C17.11 12.38 17.12 11.91 17.42 11.62C17.71 11.34 18.18 11.35 18.46 11.65C18.55 11.75 20.74 14.11 23.99 20.43C27.27 26.8 27.72 32.3 27.73 32.54C27.76 32.95 27.46 33.31 27.05 33.34C27.03 33.34 27.01 33.34 27 33.34ZM13.97 22.1C12.41 22.1 11.47 21.95 11.38 21.93C10.98 21.87 10.7 21.48 10.77 21.08C10.83 20.67 11.21 20.39 11.62 20.46C11.66 20.47 16.42 21.2 22.48 19.17C28.24 17.25 28.96 14.12 28.96 14.09C29.05 13.69 29.44 13.43 29.83 13.51C30.23 13.59 30.49 13.97 30.41 14.37C30.38 14.53 29.61 18.36 22.94 20.59C19.26 21.83 16.06 22.1 13.97 22.1ZM15.13 31.32C15.03 31.32 14.93 31.3 14.83 31.26C14.46 31.09 14.29 30.65 14.45 30.28C14.52 30.11 16.24 26.27 21.66 23.78C27.69 21.02 32.88 22.81 33.1 22.89C33.48 23.02 33.68 23.45 33.55 23.84C33.41 24.23 32.99 24.43 32.61 24.3L32.61 24.3C32.56 24.28 27.74 22.64 22.27 25.14C17.36 27.39 15.82 30.84 15.81 30.87C15.68 31.16 15.41 31.32 15.13 31.32Z" />
		</g>
	</g>
</svg>