<svg xmlns="http://www.w3.org/2000/svg" viewBox="0 0 45 45" width="45" height="45">
	<style>
		tspan { white-space:pre }
		.shp0 { fill: #345bb4;stroke: #ffffff;paint-order:stroke fill markers;stroke-width: 2 } 
		.shp1 { fill: #ffffff } 
	</style>
	<g id="say hello">
		<g id="social buttons">
			<path id="Rounded Rectangle 4" class="shp0" d="M7.13 0L37.32 0C41.26 0 44.45 3.23 44.45 7.22L44.45 37.78C44.45 41.77 41.26 45 37.32 45L7.13 45C3.19 45 -0.01 41.77 -0.01 37.78L-0.01 7.22C-0.01 3.23 3.19 0 7.13 0Z" />
			<path id="Facebook" class="shp1" d="M24.12 12.05C24.21 12.05 24.26 12.05 24.26 12.05L26.22 12.05L26.21 14.31L24.26 14.31C23.19 14.31 23.21 15.23 23.21 15.23L23.21 18.81L27.01 18.81L26.48 21.07L23.2 21.07L23.2 32.36L20.95 32.36L20.95 21.07L17.96 21.07L17.95 18.81L20.95 18.81C20.95 18.81 20.95 16.05 20.95 15.3C20.95 12.24 23.49 12.05 24.12 12.05M26.22 12.05L26.22 12.05M24.12 10.54L24.12 10.54C23.58 10.54 22.52 10.63 21.52 11.23C20.58 11.8 19.45 12.97 19.45 15.3L19.45 17.3L17.95 17.3C17.55 17.3 17.17 17.46 16.89 17.75C16.61 18.03 16.45 18.42 16.45 18.82L16.46 21.07C16.46 21.9 17.13 22.58 17.96 22.58L19.45 22.58L19.45 32.36C19.45 33.2 20.12 33.87 20.95 33.87L23.2 33.87C24.03 33.87 24.7 33.2 24.7 32.36L24.7 22.58L26.48 22.58C27.14 22.58 27.73 22.13 27.92 21.49L28.45 19.24C28.58 18.78 28.49 18.29 28.21 17.91C27.93 17.53 27.48 17.3 27.01 17.3L24.72 17.3L24.72 15.82L26.21 15.82C27.03 15.82 27.71 15.15 27.71 14.32L27.72 12.13C27.72 12.1 27.72 12.08 27.72 12.05C27.72 11.22 27.05 10.54 26.22 10.54L26.22 10.54L24.3 10.54C24.26 10.54 24.19 10.54 24.12 10.54L24.12 10.54Z" />
		</g>
	</g>
</svg>