<svg xmlns="http://www.w3.org/2000/svg" viewBox="0 0 45 45" width="45" height="45">
	<style>
		tspan { white-space:pre }
		.shp0 { fill: #00b4ff;stroke: #ffffff;paint-order:stroke fill markers;stroke-width: 2 } 
		.shp1 { fill: #ffffff } 
	</style>
	<g id="say hello">
		<g id="social buttons">
			<path id="Rounded Rectangle 4 copy 2" class="shp0" d="M7.67 0L37.86 0C41.8 0 44.99 3.23 44.99 7.22L44.99 37.78C44.99 41.77 41.8 45 37.86 45L7.67 45C3.73 45 0.54 41.77 0.54 37.78L0.54 7.22C0.54 3.23 3.73 0 7.67 0Z" />
			<path id="Twitter" class="shp1" d="M26.54 14.73C27.71 14.73 28.76 15.2 29.5 15.97C30.41 15.79 31.28 15.47 32.06 15.02C31.76 15.93 31.12 16.7 30.28 17.18C31.1 17.09 31.88 16.88 32.61 16.56C32.06 17.35 31.38 18.04 30.59 18.59C30.6 18.76 30.6 18.93 30.6 19.1C30.6 24.27 26.53 30.24 19.1 30.24C16.82 30.24 14.69 29.59 12.9 28.48C13.22 28.51 13.54 28.53 13.87 28.53C15.76 28.53 17.5 27.91 18.89 26.85C17.12 26.82 15.62 25.69 15.11 24.14C15.36 24.18 15.61 24.21 15.87 24.21C16.24 24.21 16.6 24.16 16.94 24.07C15.09 23.71 13.69 22.13 13.69 20.23C13.69 20.22 13.69 20.2 13.69 20.18C14.24 20.48 14.86 20.65 15.53 20.67C14.44 19.97 13.73 18.77 13.73 17.41C13.73 16.7 13.93 16.02 14.27 15.45C16.27 17.81 19.25 19.37 22.61 19.54C22.54 19.25 22.5 18.95 22.5 18.65C22.5 16.48 24.31 14.73 26.54 14.73M32.61 16.56L32.61 16.56M26.54 13.33C23.78 13.33 21.49 15.34 21.14 17.94C18.88 17.49 16.83 16.3 15.35 14.54C15.08 14.22 14.69 14.04 14.27 14.04C14.24 14.04 14.2 14.04 14.16 14.05C13.71 14.08 13.3 14.33 13.07 14.72C12.58 15.54 12.32 16.47 12.32 17.41C12.32 18.05 12.43 18.66 12.65 19.24C12.42 19.5 12.29 19.83 12.29 20.18L12.29 20.23C12.29 21.61 12.83 22.88 13.74 23.84C13.68 24.08 13.7 24.33 13.77 24.58C14.09 25.52 14.65 26.34 15.39 26.96C14.9 27.07 14.39 27.13 13.87 27.13C13.59 27.13 13.32 27.11 13.07 27.08C13.01 27.07 12.96 27.07 12.9 27.07C12.31 27.07 11.77 27.44 11.57 28.01C11.36 28.63 11.6 29.32 12.16 29.67C14.24 30.96 16.64 31.64 19.1 31.64C27.1 31.64 31.91 25.39 32.01 19.28C32.66 18.74 33.24 18.11 33.73 17.41C33.91 17.18 34.01 16.88 34.01 16.56C34.01 16.09 33.78 15.66 33.41 15.41C33.57 14.87 33.39 14.29 32.95 13.93C32.69 13.72 32.38 13.61 32.06 13.61C31.82 13.61 31.58 13.68 31.36 13.8C30.89 14.07 30.4 14.28 29.87 14.43C28.93 13.72 27.75 13.33 26.54 13.33L26.54 13.33Z" />
		</g>
	</g>
</svg>